<?xml version="1.0" encoding="UTF-8"?><svg id="b" xmlns="http://www.w3.org/2000/svg" width="346.15" height="85.54" viewBox="0 0 346.15 85.54"><g id="c"><g><g><g><path d="m92.5,74.71c.79.66,1.18,1.56,1.18,2.71s-.39,2.05-1.18,2.71c-.79.66-1.87.98-3.24.98h-2.62v3.21h-1.51v-10.6h4.13c1.37,0,2.45.33,3.24.98Zm-1.09,4.48c.5-.41.76-1,.76-1.76s-.25-1.36-.76-1.77c-.5-.41-1.24-.61-2.2-.61h-2.57v4.75h2.57c.96,0,1.69-.2,2.2-.61Z" fill="#666"/><path d="m107.88,81.67h-5.63l-1.17,2.65h-1.56l4.8-10.6h1.5l4.82,10.6h-1.59l-1.17-2.65Zm-.53-1.21l-2.29-5.19-2.29,5.19h4.57Z" fill="#666"/><path d="m125.06,84.32l-2.29-3.26c-.28.02-.5.03-.67.03h-2.62v3.23h-1.51v-10.6h4.13c1.37,0,2.45.33,3.24.98.79.66,1.18,1.56,1.18,2.71,0,.82-.2,1.51-.61,2.09-.4.58-.98.99-1.73,1.26l2.51,3.56h-1.65Zm-.8-5.13c.5-.41.76-1,.76-1.77s-.25-1.36-.76-1.77c-.5-.41-1.24-.61-2.2-.61h-2.57v4.77h2.57c.96,0,1.69-.21,2.2-.62Z" fill="#666"/><path d="m136.69,75.04h-3.63v-1.32h8.77v1.32h-3.63v9.28h-1.5v-9.28Z" fill="#666"/><path d="m158.35,73.72v10.6h-1.24l-6.36-7.91v7.91h-1.51v-10.6h1.24l6.36,7.91v-7.91h1.51Z" fill="#666"/><path d="m174.98,83.01v1.32h-7.69v-10.6h7.48v1.32h-5.97v3.26h5.32v1.29h-5.32v3.42h6.18Z" fill="#666"/><path d="m190.27,84.32l-2.29-3.26c-.28.02-.5.03-.67.03h-2.62v3.23h-1.51v-10.6h4.13c1.37,0,2.45.33,3.24.98.79.66,1.18,1.56,1.18,2.71,0,.82-.2,1.51-.61,2.09-.4.58-.98.99-1.73,1.26l2.51,3.56h-1.65Zm-.8-5.13c.5-.41.76-1,.76-1.77s-.25-1.36-.76-1.77c-.5-.41-1.24-.61-2.2-.61h-2.57v4.77h2.57c.96,0,1.69-.21,2.2-.62Z" fill="#666"/><path d="m200.73,84.07c-.74-.25-1.33-.57-1.75-.96l.56-1.18c.4.36.92.66,1.55.89.63.23,1.28.34,1.95.34.88,0,1.53-.15,1.97-.45.43-.3.65-.69.65-1.19,0-.36-.12-.66-.36-.89-.24-.23-.53-.4-.88-.52-.35-.12-.84-.26-1.48-.41-.8-.19-1.44-.38-1.93-.58s-.91-.49-1.26-.89-.52-.94-.52-1.61c0-.57.15-1.08.45-1.53.3-.45.75-.82,1.36-1.09s1.36-.41,2.26-.41c.63,0,1.24.08,1.85.24.61.16,1.13.39,1.56.7l-.5,1.21c-.44-.28-.92-.5-1.42-.64-.5-.15-1-.22-1.48-.22-.86,0-1.5.16-1.93.47s-.64.72-.64,1.21c0,.36.12.66.36.89.24.23.54.4.9.53.36.13.85.26,1.46.4.8.19,1.44.38,1.92.58s.9.48,1.25.88c.35.39.52.92.52,1.59,0,.56-.15,1.06-.45,1.52-.3.46-.76.82-1.38,1.09s-1.37.4-2.27.4c-.8,0-1.57-.12-2.31-.37Z" fill="#666"/></g><g><path d="m330.65,36.12c0-1.71,1.07-2.7,3.06-2.7,3.34,0,5.47,3.06,5.47,3.06l6.97-5.47c-1.57-2.63-6.18-7.11-14.43-7.11-10.38,0-13.37,7.04-13.37,11.87,0,11.3,16.49,10.66,16.49,17.34,0,2.48-2.21,3.62-4.55,3.62-5.69,0-10.09-6.61-10.09-6.61l-6.82,6.83c4.33,5.26,9.88,8.88,16.92,8.88,12.86,0,15.35-7.89,15.35-12.72,0-11.8-14.99-13.29-14.99-16.99Z" fill="#bd2654"/><path d="m293.62,24.68h-14v8.67h13.15c3.13,0,4.83,1.78,5.47,4.55l-12.79,4.62c-7.75,2.77-9.52,7.67-9.52,12.15,0,7.89,5.61,11.59,11.66,11.59,4.05,0,8.24-1.64,11.09-4.83l.71,3.98h9.38v-26.79c0-9.81-5.41-13.93-15.15-13.93Zm4.83,25.31c0,4.97-3.69,7.32-6.75,7.32-2.28,0-4.19-1.21-4.19-3.7,0-1.42.92-2.77,2.27-3.34l8.67-3.77v3.48Z" fill="#bd2654"/><rect x="259.51" y="5.56" width="10.31" height="59.84" fill="#bd2654"/><path d="m197.96,24.32v20.9c0,8.45-4.55,10.73-9.38,10.73-3.27,0-3.56-3.56-3.56-8.32v-23.39h-10.31v20.19c0,11.52-.07,21.47,11.87,21.47,5.54,0,9.31-2.13,11.44-5.97l.78,5.47h9.46V24.32h-10.31Z" fill="#bd2654"/><path d="m148.14,23.97c-11.51,0-20.89,9.38-20.89,20.9s9.38,20.89,20.89,20.89,20.9-9.38,20.9-20.89c-.07-11.52-9.38-20.9-20.9-20.9Zm0,31.06c-5.61,0-10.16-4.62-10.16-10.16s4.62-10.17,10.16-10.17,10.17,4.55,10.17,10.17-4.55,10.16-10.17,10.16Z" fill="#bd2654"/><path d="m98.88,15.87h-14.21v49.54h13.08c15.14,0,25.16-9.59,25.3-24.17.14-14.64-9.88-25.37-24.17-25.37Zm-1.13,38.8h-2.35v-28.07h3.42c8.32,0,13.5,5.68,13.5,14.21,0,9.1-5.89,13.86-14.57,13.86Z" fill="#bd2654"/><path d="m254.36,24.38h-10.31v2.51c-3.11-1.85-6.72-2.93-10.59-2.93-11.51,0-20.89,9.38-20.89,20.9,0,10.09,7.21,18.54,16.74,20.48.42.15,1.01.24,1.79.27.78.09,1.56.14,2.37.14,1.05,0,2.07-.1,3.08-.25.04,0,.09,0,.13,0,2.88.13,5.66,1.06,5.66,5.25,0,2.48-1.85,2.91-8.18,2.91-3.69,0-11.89-.14-18.79-.14v10.66c3.41,0,10.9.28,15.31.28,10.73,0,21.96-1.71,21.96-13.72,0-4.2-1.36-7.88-5.3-10.32,4.29-3.83,7.02-9.39,7.02-15.57,0-.18-.02-.35-.03-.52h.03s0-19.96,0-19.96Zm-20.9,30.65c-5.61,0-10.16-4.62-10.16-10.16s4.62-10.17,10.16-10.17,10.17,4.55,10.17,10.17-4.55,10.16-10.17,10.16Z" fill="#bd2654"/></g></g><g><path d="m48.1,14.05l-28.46,68.98,11.79,2.51,3.84-8.35s25.82-.34,31.42-25.05c5.76-25.47-18.58-38.09-18.58-38.09Zm5.59,37.74c-3.21,11.32-14.61,14.42-14.61,14.42l12.72-29.99s4.47,6.47,1.89,15.57Z" fill="#bd2654"/><path d="m36.13,0l-3.84,8.35S6.47,8.69.88,33.4c-5.76,25.47,18.58,38.09,18.58,38.09L47.92,2.51l-11.79-2.51ZM15.76,49.33s-4.47-6.47-1.89-15.57c3.21-11.32,14.61-14.42,14.61-14.42l-12.72,29.99Z" fill="#bd2654"/></g></g></g></svg>